<?xml version="1.0" encoding="utf-8"?>
<!-- Generator: Adobe Illustrator 15.1.0, SVG Export Plug-In . SVG Version: 6.00 Build 0)  -->
<!DOCTYPE svg PUBLIC "-//W3C//DTD SVG 1.1//EN" "http://www.w3.org/Graphics/SVG/1.1/DTD/svg11.dtd">
<svg version="1.1" id="Livello_1" xmlns="http://www.w3.org/2000/svg" xmlns:xlink="http://www.w3.org/1999/xlink" x="0px" y="0px"
	 width="33.619px" height="33.607px" viewBox="0 0 33.619 33.607" enable-background="new 0 0 33.619 33.607" xml:space="preserve">
<rect x="-90.854" y="-96.583" fill="none" width="226.771" height="226.771"/>
<g>
	<polygon points="26.211,11.491 26.211,25.788 14.771,17.792 	"/>
	<polygon points="7.468,11.491 7.468,25.848 18.827,17.819 	"/>
	<polygon points="16.982,0 4.99,6.759 16.982,6.726 	"/>
	<polygon points="16.973,0 28.962,6.759 16.973,6.726 	"/>
	<polygon fill="#D3D80E" points="16.982,17.038 7.229,25.426 16.982,25.426 	"/>
	<polygon fill="#2DAFE6" points="16.973,17.038 26.48,25.426 16.973,25.426 	"/>
	<polygon points="7.018,26.796 16.973,26.796 16.973,33.607 	"/>
	<polygon points="26.852,26.838 16.973,26.838 16.973,33.607 	"/>
	<polygon points="5.016,6.728 17.009,6.728 17.009,13.724 	"/>
	<polygon points="28.975,6.728 16.642,6.728 16.642,13.716 	"/>
	<g>
		<path d="M28.447,7.579v17.613l-1.736,1.152V11.851V11l-0.743,0.414l-8.987,5.005l-9.034-4.991l-0.742-0.41v0.848v14.466
			l-1.689-1.146V7.579l11.222,6.249l0.243,0.135l0.243-0.135L28.447,7.579 M28.947,6.728L16.981,13.39L5.016,6.728v18.724
			l2.689,1.824v-15.41l9.276,5.125l9.229-5.14v15.425l2.736-1.815V6.728L28.947,6.728z"/>
	</g>
	<path d="M-74.985,16.535c-1.256-0.444-1.612-1.451-1.612-2.424v-0.252c0-1.657,0.935-2.574,2.811-2.574h0.929
		c1.484,0,2.398,0.638,2.398,2.174c0,0.355-0.18,0.681-0.681,0.681c-0.473,0-0.683-0.326-0.683-0.681
		c0-0.604-0.429-0.873-1.034-0.873h-0.929c-1.019,0-1.451,0.386-1.451,1.272v0.252c0,0.604,0.357,0.974,0.804,1.136l2.642,0.951
		c1.125,0.396,1.7,1.223,1.7,2.493v0.518c0,1.657-0.932,2.721-2.808,2.721h-1.391c-1.478,0-2.392-0.635-2.392-2.174
		c0-0.353,0.173-0.678,0.68-0.678c0.471,0,0.675,0.325,0.675,0.678c0,0.622,0.435,0.873,1.037,0.873h1.391
		c1.019,0,1.462-0.533,1.462-1.42V18.69c0-0.648-0.293-1.006-0.74-1.168L-74.985,16.535z"/>
	<rect x="7.435" y="16.625" width="19.046" height="10.467"/>
	<rect x="5.146" y="6.72" width="23.552" height="0.165"/>
	<rect x="16.917" y="0.122" width="0.124" height="6.638"/>
</g>
</svg>
